<?xml version="1.0" encoding="utf-8"?>
<!-- Generator: Adobe Illustrator 19.0.0, SVG Export Plug-In . SVG Version: 6.00 Build 0)  -->
<svg version="1.1" id="Layer_1" xmlns="http://www.w3.org/2000/svg" xmlns:xlink="http://www.w3.org/1999/xlink" x="0px" y="0px"
	 viewBox="-927 509 64 64" style="enable-background:new -927 509 64 64;" xml:space="preserve">
<style type="text/css">
	.st0{fill:#FFFFFF;}
</style>
<path id="XMLID_132_" class="st0" d="M-885.8,568.6v-18.3h18.3c2,0,3.7-1.7,3.7-3.7v-11.1c0-2-1.7-3.7-3.7-3.7h-18.3v-18.3
	c0-2-1.7-3.7-3.7-3.7h-11.1c-2,0-3.7,1.7-3.7,3.7v18.3h-18.3c-2,0-3.7,1.7-3.7,3.7v11.1c0,2,1.7,3.7,3.7,3.7h18.3v18.3
	c0,2,1.7,3.7,3.7,3.7h11.1C-887.4,572.3-885.8,570.6-885.8,568.6z"/>
</svg>
